<svg xmlns="http://www.w3.org/2000/svg" id="Layer_1" viewBox="0 0 382.98 109.22">
  <defs>
    <style>
      .cls-1{fill:#1a2544}.cls-2{fill:#ff7c00}.cls-3{fill:#40b5ff}.cls-4{fill:#f20c51}.cls-5{fill:#9b54e6}.cls-6{fill:#ffb700}.cls-7{fill:#5971f2}.cls-8{fill:#ffd13a}.cls-9{fill:#ff369c}.cls-10{fill:#ff7cff}.cls-11{fill:#5324b3}
    </style>
  </defs>
  <path d="M140.24 72.83c-3.06 0-5.7-.7-7.93-2.09a13.65 13.65 0 0 1-5.17-6.07c-1.22-2.66-1.82-5.89-1.82-9.71s.61-7.11 1.82-9.79 2.94-4.72 5.18-6.12c2.24-1.4 4.88-2.1 7.92-2.1s5.67.7 7.89 2.1a13.61 13.61 0 0 1 5.12 6.11c1.2 2.67 1.8 5.94 1.8 9.81s-.6 7.05-1.79 9.71a13.36 13.36 0 0 1-5.11 6.07 14.56 14.56 0 0 1-7.91 2.09Zm0-3.38c2.29 0 4.22-.51 5.81-1.54s2.79-2.62 3.61-4.76 1.23-4.86 1.23-8.16-.42-6.11-1.26-8.27a9.83 9.83 0 0 0-3.63-4.83c-1.59-1.05-3.51-1.58-5.76-1.58s-4.18.53-5.78 1.59c-1.6 1.06-2.83 2.68-3.68 4.85s-1.28 4.92-1.28 8.24.43 6.04 1.28 8.18a9.72 9.72 0 0 0 3.68 4.75 10.46 10.46 0 0 0 5.78 1.54ZM157.72 80.12V47.37h3.74l.07 4.56a9.13 9.13 0 0 1 8.31-5.05c2.03 0 3.82.45 5.36 1.35a8.97 8.97 0 0 1 3.61 4.15c.86 1.87 1.29 4.24 1.29 7.1s-.41 5.2-1.22 7.19c-.81 1.99-2 3.51-3.56 4.56s-3.47 1.58-5.72 1.58a8.91 8.91 0 0 1-3.16-.51 7.83 7.83 0 0 1-2.32-1.33 9.27 9.27 0 0 1-1.59-1.7c-.42-.59-.76-1.15-1.01-1.68V80.1h-3.79Zm11.26-10.31c2.21 0 4-.83 5.37-2.49 1.38-1.66 2.06-4.22 2.06-7.68 0-2.96-.62-5.33-1.87-7.09s-3.1-2.64-5.57-2.64-4.31.89-5.59 2.68c-1.28 1.79-1.92 4.14-1.92 7.05 0 1.9.29 3.62.86 5.16a8.29 8.29 0 0 0 2.52 3.66 6.35 6.35 0 0 0 4.13 1.35ZM194.02 72.83c-2.29 0-4.3-.5-6.05-1.51a10.4 10.4 0 0 1-4.09-4.36c-.98-1.9-1.47-4.19-1.47-6.86s.44-4.98 1.33-6.97a10.28 10.28 0 0 1 3.86-4.61c1.69-1.09 3.73-1.63 6.11-1.63s4.25.5 5.84 1.49a9.5 9.5 0 0 1 3.65 4.24 15.68 15.68 0 0 1 1.26 6.57v1.54h-18.19c-.02 1.67.25 3.2.81 4.57s1.4 2.46 2.55 3.28c1.14.82 2.58 1.23 4.32 1.23s3.17-.4 4.4-1.2 1.99-1.93 2.29-3.39h3.62c-.31 1.67-.97 3.08-2 4.2s-2.27 1.98-3.71 2.55a12.2 12.2 0 0 1-4.53.86Zm-7.72-14.78h14.49c0-1.54-.26-2.94-.77-4.18-.51-1.24-1.3-2.22-2.35-2.95s-2.39-1.09-4-1.09c-1.69 0-3.08.41-4.18 1.22-1.1.81-1.9 1.85-2.43 3.1s-.78 2.55-.76 3.89ZM207.31 72.35V47.38h3.62v3.65c.42-.72.99-1.39 1.73-2s1.63-1.1 2.68-1.47c1.05-.37 2.24-.56 3.56-.56 1.61 0 3.08.32 4.41.95a7.31 7.31 0 0 1 3.18 2.96 10 10 0 0 1 1.18 5.14v16.3h-3.77V56.39c0-2.12-.54-3.7-1.62-4.71a6 6 0 0 0-4.27-1.52c-1.21 0-2.34.19-3.41.58a5.77 5.77 0 0 0-2.56 1.76 4.57 4.57 0 0 0-.97 2.97v16.88h-3.77ZM243.75 72.83c-1.67 0-3.26-.21-4.77-.62a14.11 14.11 0 0 1-4.08-1.82c-1.22-.8-2.21-1.8-3-2.98a10.18 10.18 0 0 1-1.53-4.14h3.98c.32 1.4.93 2.57 1.84 3.51.9.94 2.02 1.65 3.36 2.12 1.34.48 2.79.71 4.35.71s3.05-.26 4.37-.77c1.32-.51 2.37-1.25 3.16-2.2s1.18-2.09 1.18-3.43c0-1.43-.46-2.61-1.38-3.53-.92-.92-2.38-1.65-4.37-2.2l-7.34-1.96a16.91 16.91 0 0 1-4.19-1.69 7.77 7.77 0 0 1-2.86-2.83 8.58 8.58 0 0 1-1.04-4.4c0-1.92.53-3.6 1.59-5.05a10.44 10.44 0 0 1 4.33-3.38 15.3 15.3 0 0 1 6.2-1.21c2.71 0 4.97.47 6.8 1.42s3.21 2.19 4.15 3.72a9.13 9.13 0 0 1 1.41 4.85H252a7.1 7.1 0 0 0-1.49-4.01 6.99 6.99 0 0 0-3.1-2.12 11.84 11.84 0 0 0-3.99-.65c-2.61 0-4.6.6-5.96 1.81a5.6 5.6 0 0 0-2.05 4.35c0 1.55.49 2.75 1.46 3.61a10.3 10.3 0 0 0 4.19 2.02l7.29 1.93c2.01.5 3.61 1.2 4.79 2.11a8.1 8.1 0 0 1 2.55 3.14c.51 1.18.77 2.45.77 3.8 0 1.88-.52 3.57-1.57 5.06a10.5 10.5 0 0 1-4.42 3.51 16.4 16.4 0 0 1-6.74 1.28ZM257.25 72.35l12.68-34.92h4.42l12.66 34.92h-3.89l-3.6-9.95h-14.78l-3.62 9.95h-3.86Zm8.55-13.53h12.63l-6.33-17.68-6.3 17.68ZM290.36 72.35V37.43h21.21v3.36h-17.29v12.29h15.67v3.36h-15.67v15.92h-3.91ZM315.17 72.35V37.43h21.47v3.38h-17.7v12.22h16.08v3.38h-16.08v12.46l18.23.02v3.45h-22ZM341.71 72.35l.02-34.92h3.89v31.42h16.86v3.5h-20.77ZM367.5 72.35V57.4l-11.86-19.97h4.13L369.38 54l9.47-16.57h4.13l-11.74 20.02v14.9h-3.74Z" class="cls-1"/>
  <path d="M54.61 30.34c.54 0 1.08.02 1.61.05L55.54 0h-1.86L53 30.38c.53-.03 1.07-.05 1.61-.05Z" class="cls-5"/>
  <path d="M49.21 30.95c.53-.12 1.05-.22 1.58-.3L43.37 1.17l-.91.2-.9.22 6.1 29.77c.51-.15 1.03-.29 1.55-.41ZM44.08 32.74c.49-.23.98-.45 1.47-.65L31.76 5.01l-.84.4-.83.41 12.57 27.67c.46-.26.94-.51 1.42-.75Z" class="cls-11"/>
  <path d="M39.48 35.63c.42-.34.85-.66 1.29-.96L21.29 11.34l-.73.57-.72.59 18.42 24.18c.39-.36.8-.71 1.22-1.04ZM35.63 39.48c.34-.42.69-.83 1.04-1.22L12.5 19.84l-.59.72-.57.73 23.33 19.47c.3-.44.62-.87.96-1.29Z" class="cls-7"/>
  <path d="M32.74 44.08c.23-.49.48-.96.75-1.42L5.82 30.08l-.41.83-.4.84 27.08 13.79c.2-.49.41-.98.65-1.47ZM30.95 49.21c.12-.53.26-1.04.41-1.55L1.58 41.55l-.22.9-.2.91 29.47 7.42c.08-.53.18-1.05.3-1.58Z" class="cls-3"/>
  <path d="M60.01 78.27c-.53.12-1.05.22-1.58.3l7.42 29.47.91-.2.9-.22-6.1-29.77c-.51.15-1.03.29-1.55.41ZM65.14 76.48c-.49.23-.98.45-1.47.65l13.79 27.08.84-.4.83-.41-12.57-27.67c-.46.26-.94.51-1.42.75Z" class="cls-8"/>
  <path d="M69.74 73.59c-.42.34-.85.66-1.29.96l19.47 23.33.73-.57.72-.59-18.41-24.18c-.39.36-.8.71-1.22 1.04ZM73.59 69.74c-.34.42-.69.83-1.04 1.22l24.18 18.42.59-.72.57-.73-23.33-19.47c-.3.44-.62.87-.96 1.29Z" class="cls-6"/>
  <path d="M76.48 65.14c-.23.49-.48.96-.75 1.42l27.67 12.57.41-.83.4-.84-27.08-13.79c-.2.49-.41.98-.65 1.47ZM78.27 60.01c-.12.53-.26 1.04-.41 1.55l29.77 6.1.22-.9.2-.91-29.47-7.42c-.08.53-.18 1.05-.3 1.58Z" class="cls-2"/>
  <path d="M78.88 54.61c0 .54-.02 1.08-.05 1.61l30.38-.68v-1.86L78.83 53c.03.53.05 1.07.05 1.61ZM78.27 49.21c.12.53.22 1.05.3 1.58l29.47-7.42a29.63 29.63 0 0 0-.42-1.81l-29.77 6.1c.15.51.29 1.03.41 1.55Z" class="cls-4"/>
  <path d="M76.48 44.08c.23.49.45.98.65 1.47l27.08-13.79-.4-.84-.41-.83-27.67 12.57c.26.46.51.94.75 1.42ZM73.59 39.48c.34.42.66.85.96 1.29L97.88 21.3l-.57-.73-.59-.72-24.18 18.41c.36.39.71.8 1.04 1.22Z" class="cls-9"/>
  <path d="M69.74 35.63c.42.34.83.69 1.22 1.04l18.42-24.18-.72-.59-.73-.57-19.47 23.33c.44.3.87.62 1.29.96ZM65.14 32.74c.49.23.96.48 1.42.75L79.14 5.82l-.83-.41-.84-.4-13.79 27.08c.49.2.98.41 1.47.65Z" class="cls-10"/>
  <path d="M60.01 30.95c.53.12 1.04.26 1.55.41l6.1-29.77-.9-.22-.91-.2-7.42 29.47c.53.08 1.05.18 1.58.3Z" class="cls-5"/>
  <path d="M54.61 78.88a24.27 24.27 0 0 1-24.19-26.2H.03a54.61 54.61 0 0 0 56.51 56.51V78.81c-.64.05-1.28.08-1.93.08Z" class="cls-1"/>
</svg>
